<?xml version="1.0" encoding="utf-8"?>
<!-- Generator: Adobe Illustrator 25.1.0, SVG Export Plug-In . SVG Version: 6.00 Build 0)  -->
<svg version="1.0" id="Layer_1" xmlns="http://www.w3.org/2000/svg" xmlns:xlink="http://www.w3.org/1999/xlink" x="0px" y="0px"
	 viewBox="0 0 251.3 82.3" style="enable-background:new 0 0 251.3 82.3;" xml:space="preserve">
<style type="text/css">
	.st0{fill:#002366;}
	.st1{opacity:0.5;fill:#FFFFFF;}
	.st2{fill:#FFFFFF;}
	.st3{opacity:0.5;fill:none;stroke:#FFFFFF;stroke-width:0.4;stroke-miterlimit:10;}
	.st4{opacity:0.5;fill:none;stroke:#FFFFFF;stroke-width:0.25;stroke-miterlimit:10;}
</style>
<g>
	<g>
		<path class="st0" d="M48.4,7.4l-0.1,0.2l-3.8-2.2c0,0,0,0-0.1,0c-0.2,0-0.5,0.2-0.8,0.6c-0.1,0.2-0.2,0.4-0.2,0.6
			c0,0.2,0.1,0.4,0.1,0.4l3.8,2.2l-0.1,0.2c-0.3,0.8-0.5,1.6-0.7,2.5l0,0.2h-4.3h0c0,0-0.2,0.1-0.3,0.2c-0.1,0.2-0.2,0.4-0.2,0.7
			c0,0.3,0.1,0.5,0.2,0.7c0.1,0.1,0.2,0.2,0.3,0.2l4.3,0l0,0.2c0.1,0.9,0.3,1.7,0.7,2.5l0.1,0.2l-3.7,2.2c0,0-0.1,0.2-0.1,0.4
			c0,0.2,0.1,0.4,0.2,0.6c0.3,0.4,0.6,0.6,0.7,0.6c0.1,0,0.1,0,0.1,0l3.8-2.2l0.1,0.2c0.5,0.7,1.1,1.3,1.8,1.8l0.2,0.1l-2.2,3.8
			c0,0,0,0,0,0.1c0,0.2,0.1,0.5,0.6,0.8c0.2,0.1,0.4,0.2,0.6,0.2c0.2,0,0.4-0.1,0.4-0.1l2.2-3.8l0.2,0.1c0.8,0.3,1.6,0.5,2.4,0.6
			l0.2,0v4.3c0,0.1,0.1,0.2,0.2,0.3c0.4,0.3,1.1,0.3,1.4,0c0.2-0.1,0.2-0.2,0.2-0.3l0-4.3l0.2,0c0.9-0.1,1.7-0.3,2.5-0.7l0.2-0.1
			l2.2,3.7c0,0,0.2,0.1,0.4,0.1c0,0,0,0,0,0c0.2,0,0.4-0.1,0.6-0.2c0.4-0.3,0.6-0.6,0.6-0.7c0-0.1,0-0.1,0-0.1L61,20.4l0.2-0.1
			c0.7-0.5,1.3-1.1,1.8-1.8l0.1-0.2l3.8,2.2c0,0,0,0,0.1,0c0.2,0,0.5-0.2,0.8-0.6c0.1-0.2,0.2-0.4,0.2-0.6c0-0.2-0.1-0.4-0.1-0.4
			L64,16.7l0.1-0.2c0.2-0.5,0.4-1.1,0.5-1.6L49.5,6.2C49.1,6.6,48.7,7,48.4,7.4z"/>
		<path class="st0" d="M26.8,75.1l0.1-0.2l3.8,2.2c0,0,0,0,0.1,0c0.2,0,0.5-0.2,0.8-0.6c0.1-0.2,0.2-0.4,0.2-0.6
			c0-0.2-0.1-0.4-0.1-0.4l-3.8-2.2l0.1-0.2c0.3-0.8,0.5-1.6,0.7-2.5l0-0.2H33c0.1,0,0.1,0,0.3-0.2c0.1-0.2,0.2-0.4,0.2-0.7
			c0-0.4-0.1-0.6-0.2-0.7c-0.1-0.1-0.2-0.2-0.3-0.2h-4.3l0-0.2c-0.1-0.9-0.3-1.7-0.7-2.5l-0.1-0.2l3.7-2.2c0,0,0.1-0.2,0.1-0.4
			c0-0.2-0.1-0.4-0.2-0.6c-0.3-0.4-0.6-0.6-0.7-0.6c-0.1,0-0.1,0-0.1,0L27,64.3l-0.1-0.2c-0.5-0.7-1.1-1.3-1.8-1.8l-0.2-0.1l2.2-3.8
			c0,0,0,0,0-0.1c0-0.2-0.1-0.5-0.6-0.8c-0.3-0.2-0.5-0.2-0.6-0.2c-0.2,0-0.4,0.1-0.4,0.1l-2.2,3.8l-0.2-0.1
			c-0.8-0.3-1.6-0.6-2.5-0.7l-0.2,0l0-4.3c0,0-0.1-0.2-0.2-0.3c-0.2-0.1-0.4-0.2-0.7-0.2c-0.4,0-0.6,0.1-0.7,0.2
			c-0.2,0.1-0.2,0.2-0.2,0.3v4.3l-0.2,0c-0.9,0.1-1.7,0.3-2.4,0.7l-0.2,0.1l-2.2-3.7c0,0-0.2-0.1-0.4-0.1c-0.2,0-0.4,0.1-0.6,0.2
			c-0.4,0.3-0.6,0.6-0.6,0.7c0,0.1,0,0.1,0,0.1l2.2,3.7L14,62.3c-0.7,0.5-1.3,1.1-1.8,1.8l-0.1,0.2l-3.8-2.2c0,0,0,0-0.1,0
			c-0.2,0-0.5,0.2-0.8,0.6c-0.1,0.2-0.2,0.4-0.2,0.6c0,0.2,0.1,0.4,0.1,0.4l3.8,2.2L11.1,66c-0.3,0.7-0.5,1.5-0.6,2.4l14.7,8.5
			C25.8,76.4,26.4,75.8,26.8,75.1z"/>
		<path class="st0" d="M69.5,17.7l-4.4-2.5c-0.1,0.5-0.2,0.9-0.4,1.4l3.4,1.9c0.2,0.1,0.4,0.4,0.4,0.8c0,0.3-0.1,0.6-0.2,0.8
			c-0.3,0.6-0.9,0.9-1.2,0.8c-0.1,0-0.2,0-0.3-0.1l-3.4-1.9c-0.5,0.6-1,1.1-1.6,1.6l1.9,3.4c0.1,0.1,0.1,0.2,0.1,0.3
			c0,0.3-0.2,0.8-0.8,1.2c-0.3,0.2-0.6,0.3-0.9,0.3c0,0,0,0,0,0c-0.4,0-0.7-0.1-0.8-0.4l-1.9-3.4c-0.7,0.3-1.4,0.5-2.2,0.6l0,3.9
			c0,0.2-0.1,0.5-0.4,0.7c-0.3,0.2-0.6,0.3-1,0.3c-0.4,0-0.7-0.1-1-0.3c-0.3-0.2-0.4-0.4-0.4-0.7v-3.9c-0.7-0.1-1.5-0.3-2.1-0.6
			l-1.9,3.4c-0.2,0.4-1,0.5-1.7,0.2c-0.6-0.3-0.8-0.9-0.8-1.2c0-0.1,0-0.2,0.1-0.3l1.9-3.4c-0.6-0.5-1.1-1-1.6-1.6l-3.4,1.9
			c-0.4,0.2-1.1,0-1.5-0.7C43,19.9,43,19.6,43,19.3c0-0.4,0.1-0.7,0.4-0.8l3.4-1.9c-0.3-0.7-0.5-1.4-0.6-2.2l-3.9,0c0,0,0,0,0,0
			c-0.2,0-0.5-0.1-0.7-0.4c-0.2-0.3-0.3-0.6-0.3-1c0-0.4,0.1-0.7,0.3-1c0.2-0.3,0.4-0.4,0.7-0.4c0,0,0,0,0,0h3.9
			c0.1-0.7,0.3-1.5,0.6-2.2l-3.4-1.9c-0.2-0.1-0.4-0.4-0.4-0.8c0-0.3,0.1-0.6,0.2-0.8c0.3-0.6,0.8-0.8,1.2-0.8c0.1,0,0.2,0,0.4,0.1
			L48.1,7c0.3-0.4,0.6-0.7,1-1.1l-8.4-4.8c-2.5-1.4-5.5-1.4-8,0L4,17.7c-2.5,1.4-4,4.1-4,6.9v33.2c0,2.8,1.5,5.5,4,6.9l6,3.5
			c0.1-0.7,0.3-1.4,0.6-2.1l-3.4-1.9c-0.2-0.1-0.4-0.4-0.4-0.8c0-0.3,0.1-0.6,0.2-0.8c0.3-0.6,0.9-0.8,1.2-0.8c0.1,0,0.2,0,0.3,0.1
			l3.4,1.9c0.5-0.6,1-1.1,1.6-1.6l-1.9-3.4c-0.1-0.1-0.1-0.2-0.1-0.3c0-0.3,0.2-0.8,0.8-1.2c0.3-0.2,0.6-0.3,0.9-0.3c0,0,0,0,0,0
			c0.4,0,0.7,0.1,0.8,0.4l1.9,3.4c0.7-0.3,1.4-0.5,2.2-0.6v-3.9c0-0.2,0.1-0.5,0.4-0.7c0.3-0.2,0.6-0.3,0.9-0.3c0,0,0,0,0,0
			c0.4,0,0.8,0.1,1,0.3c0.3,0.2,0.4,0.4,0.4,0.7l0,3.9c0.8,0.1,1.5,0.3,2.2,0.6l1.9-3.4c0.2-0.4,1-0.5,1.7-0.2
			c0.6,0.3,0.8,0.9,0.8,1.2c0,0.1,0,0.2-0.1,0.3L25.5,62c0.6,0.5,1.1,1,1.6,1.6l3.4-1.9c0.1-0.1,0.2-0.1,0.3-0.1
			c0.3,0,0.8,0.2,1.2,0.8l0,0.1c0.2,0.3,0.2,0.6,0.2,0.9c0,0.4-0.1,0.7-0.4,0.8L28.5,66c0.3,0.7,0.5,1.4,0.6,2.2H33
			c0.2,0,0.5,0.1,0.7,0.4l0,0c0.2,0.3,0.3,0.6,0.3,0.9c0,0.4-0.1,0.8-0.3,1C33.5,70.9,33.2,71,33,71c0,0,0,0,0,0h-3.9
			c-0.1,0.7-0.3,1.5-0.6,2.2l3.4,1.9c0.2,0.1,0.4,0.4,0.4,0.8c0,0.3-0.1,0.6-0.2,0.8c-0.3,0.6-0.9,0.8-1.2,0.8c-0.1,0-0.2,0-0.3-0.1
			l-3.4-1.9c-0.5,0.6-1,1.1-1.5,1.5l7.2,4.1c2.5,1.4,5.5,1.4,8,0l28.8-16.6c2.5-1.4,4-4.1,4-6.9V24.6C73.4,21.7,71.9,19.1,69.5,17.7
			z"/>
		<path class="st0" d="M27.1,75.6l3.4,1.9c0.1,0.1,0.2,0.1,0.3,0.1c0.3,0,0.9-0.2,1.2-0.8c0.2-0.3,0.2-0.6,0.2-0.8
			c0-0.4-0.1-0.7-0.4-0.8l-3.4-1.9c0.3-0.7,0.5-1.4,0.6-2.2H33c0,0,0,0,0,0c0.2,0,0.5-0.1,0.7-0.4c0.2-0.3,0.3-0.6,0.3-1
			c0-0.4-0.1-0.7-0.3-0.9l0,0c-0.2-0.3-0.4-0.4-0.7-0.4h-3.9c-0.1-0.7-0.3-1.5-0.6-2.2l3.4-1.9c0.2-0.1,0.4-0.5,0.4-0.8
			c0-0.3-0.1-0.6-0.2-0.9l0-0.1c-0.3-0.5-0.8-0.8-1.2-0.8c-0.1,0-0.2,0-0.3,0.1l-3.4,1.9c-0.5-0.6-1-1.1-1.6-1.6l1.9-3.4
			c0.1-0.1,0.1-0.2,0.1-0.3c0-0.4-0.2-0.9-0.8-1.2c-0.6-0.3-1.4-0.3-1.7,0.2l-1.9,3.4c-0.7-0.3-1.4-0.5-2.2-0.6l0-3.9
			c0-0.2-0.1-0.5-0.4-0.7c-0.3-0.2-0.6-0.3-1-0.3c0,0,0,0,0,0c-0.4,0-0.7,0.1-0.9,0.3c-0.3,0.2-0.4,0.4-0.4,0.7V60
			c-0.7,0.1-1.5,0.3-2.2,0.6L14,57.3c-0.1-0.2-0.4-0.4-0.8-0.4c0,0,0,0,0,0c-0.3,0-0.6,0.1-0.9,0.3c-0.5,0.3-0.8,0.8-0.8,1.2
			c0,0.1,0,0.2,0.1,0.3l1.9,3.4c-0.6,0.5-1.1,1-1.6,1.6l-3.4-1.9c-0.1-0.1-0.2-0.1-0.3-0.1c-0.4,0-0.9,0.2-1.2,0.8
			c-0.2,0.3-0.2,0.6-0.2,0.8c0,0.4,0.1,0.7,0.4,0.8l3.4,1.9c-0.3,0.7-0.4,1.4-0.6,2.1l0.5,0.3c0.1-0.8,0.3-1.6,0.6-2.4l0.1-0.2
			l-3.8-2.2c0,0-0.1-0.1-0.1-0.4c0-0.2,0.1-0.4,0.2-0.6c0.2-0.4,0.6-0.6,0.8-0.6c0.1,0,0.1,0,0.1,0l3.8,2.2l0.1-0.2
			c0.5-0.7,1.1-1.3,1.8-1.8l0.2-0.1L12,58.4c0,0,0,0,0-0.1c0-0.2,0.1-0.5,0.6-0.7c0.2-0.1,0.4-0.2,0.6-0.2c0.2,0,0.4,0.1,0.4,0.1
			l2.2,3.7l0.2-0.1c0.8-0.3,1.6-0.5,2.4-0.7l0.2,0v-4.3c0,0,0-0.1,0.2-0.3c0.1-0.1,0.3-0.2,0.7-0.2c0.3,0,0.5,0.1,0.7,0.2
			c0.1,0.1,0.2,0.2,0.2,0.3l0,4.3l0.2,0c0.9,0.1,1.7,0.3,2.5,0.7l0.2,0.1l2.2-3.8c0,0,0.1-0.1,0.4-0.1c0.1,0,0.4,0,0.6,0.2
			c0.4,0.2,0.6,0.6,0.6,0.8c0,0.1,0,0.1,0,0.1l-2.2,3.8l0.2,0.1c0.7,0.5,1.3,1.1,1.8,1.8l0.1,0.2l3.7-2.2c0,0,0,0,0.1,0
			c0.2,0,0.5,0.1,0.7,0.6c0.1,0.2,0.2,0.4,0.2,0.6c0,0.2-0.1,0.4-0.1,0.4l-3.7,2.2L28,66c0.3,0.8,0.6,1.6,0.7,2.5l0,0.2H33
			c0,0,0.2,0,0.3,0.2c0.1,0.1,0.2,0.3,0.2,0.7c0,0.3-0.1,0.5-0.2,0.7c-0.1,0.2-0.2,0.2-0.3,0.2h-4.3l0,0.2c-0.1,0.9-0.3,1.7-0.7,2.5
			l-0.1,0.2l3.8,2.2c0,0,0.1,0.1,0.1,0.4c0,0.2-0.1,0.4-0.2,0.6c-0.2,0.4-0.6,0.6-0.8,0.6c-0.1,0-0.1,0-0.1,0L27,74.9l-0.1,0.2
			c-0.5,0.7-1.1,1.2-1.7,1.8l0.5,0.3C26.1,76.7,26.7,76.2,27.1,75.6z"/>
		<path class="st1" d="M27.1,75.6l3.4,1.9c0.1,0.1,0.2,0.1,0.3,0.1c0.3,0,0.9-0.2,1.2-0.8c0.2-0.3,0.2-0.6,0.2-0.8
			c0-0.4-0.1-0.7-0.4-0.8l-3.4-1.9c0.3-0.7,0.5-1.4,0.6-2.2H33c0,0,0,0,0,0c0.2,0,0.5-0.1,0.7-0.4c0.2-0.3,0.3-0.6,0.3-1
			c0-0.4-0.1-0.7-0.3-0.9l0,0c-0.2-0.3-0.4-0.4-0.7-0.4h-3.9c-0.1-0.7-0.3-1.5-0.6-2.2l3.4-1.9c0.2-0.1,0.4-0.5,0.4-0.8
			c0-0.3-0.1-0.6-0.2-0.9l0-0.1c-0.3-0.5-0.8-0.8-1.2-0.8c-0.1,0-0.2,0-0.3,0.1l-3.4,1.9c-0.5-0.6-1-1.1-1.6-1.6l1.9-3.4
			c0.1-0.1,0.1-0.2,0.1-0.3c0-0.4-0.2-0.9-0.8-1.2c-0.6-0.3-1.4-0.3-1.7,0.2l-1.9,3.4c-0.7-0.3-1.4-0.5-2.2-0.6l0-3.9
			c0-0.2-0.1-0.5-0.4-0.7c-0.3-0.2-0.6-0.3-1-0.3c0,0,0,0,0,0c-0.4,0-0.7,0.1-0.9,0.3c-0.3,0.2-0.4,0.4-0.4,0.7V60
			c-0.7,0.1-1.5,0.3-2.2,0.6L14,57.3c-0.1-0.2-0.4-0.4-0.8-0.4c0,0,0,0,0,0c-0.3,0-0.6,0.1-0.9,0.3c-0.5,0.3-0.8,0.8-0.8,1.2
			c0,0.1,0,0.2,0.1,0.3l1.9,3.4c-0.6,0.5-1.1,1-1.6,1.6l-3.4-1.9c-0.1-0.1-0.2-0.1-0.3-0.1c-0.4,0-0.9,0.2-1.2,0.8
			c-0.2,0.3-0.2,0.6-0.2,0.8c0,0.4,0.1,0.7,0.4,0.8l3.4,1.9c-0.3,0.7-0.4,1.4-0.6,2.1l0.5,0.3c0.1-0.8,0.3-1.6,0.6-2.4l0.1-0.2
			l-3.8-2.2c0,0-0.1-0.1-0.1-0.4c0-0.2,0.1-0.4,0.2-0.6c0.2-0.4,0.6-0.6,0.8-0.6c0.1,0,0.1,0,0.1,0l3.8,2.2l0.1-0.2
			c0.5-0.7,1.1-1.3,1.8-1.8l0.2-0.1L12,58.4c0,0,0,0,0-0.1c0-0.2,0.1-0.5,0.6-0.7c0.2-0.1,0.4-0.2,0.6-0.2c0.2,0,0.4,0.1,0.4,0.1
			l2.2,3.7l0.2-0.1c0.8-0.3,1.6-0.5,2.4-0.7l0.2,0v-4.3c0,0,0-0.1,0.2-0.3c0.1-0.1,0.3-0.2,0.7-0.2c0.3,0,0.5,0.1,0.7,0.2
			c0.1,0.1,0.2,0.2,0.2,0.3l0,4.3l0.2,0c0.9,0.1,1.7,0.3,2.5,0.7l0.2,0.1l2.2-3.8c0,0,0.1-0.1,0.4-0.1c0.1,0,0.4,0,0.6,0.2
			c0.4,0.2,0.6,0.6,0.6,0.8c0,0.1,0,0.1,0,0.1l-2.2,3.8l0.2,0.1c0.7,0.5,1.3,1.1,1.8,1.8l0.1,0.2l3.7-2.2c0,0,0,0,0.1,0
			c0.2,0,0.5,0.1,0.7,0.6c0.1,0.2,0.2,0.4,0.2,0.6c0,0.2-0.1,0.4-0.1,0.4l-3.7,2.2L28,66c0.3,0.8,0.6,1.6,0.7,2.5l0,0.2H33
			c0,0,0.2,0,0.3,0.2c0.1,0.1,0.2,0.3,0.2,0.7c0,0.3-0.1,0.5-0.2,0.7c-0.1,0.2-0.2,0.2-0.3,0.2h-4.3l0,0.2c-0.1,0.9-0.3,1.7-0.7,2.5
			l-0.1,0.2l3.8,2.2c0,0,0.1,0.1,0.1,0.4c0,0.2-0.1,0.4-0.2,0.6c-0.2,0.4-0.6,0.6-0.8,0.6c-0.1,0-0.1,0-0.1,0L27,74.9l-0.1,0.2
			c-0.5,0.7-1.1,1.2-1.7,1.8l0.5,0.3C26.1,76.7,26.7,76.2,27.1,75.6z"/>
		<path class="st0" d="M48.1,7L44.7,5c-0.1-0.1-0.2-0.1-0.4-0.1c-0.4,0-0.9,0.3-1.2,0.8C43,6,42.9,6.3,42.9,6.6
			c0,0.4,0.1,0.7,0.4,0.8l3.4,1.9c-0.3,0.7-0.5,1.4-0.6,2.2h-3.9c0,0,0,0,0,0c-0.2,0-0.5,0.1-0.7,0.4c-0.2,0.3-0.3,0.6-0.3,1
			c0,0.4,0.1,0.7,0.3,1c0.2,0.3,0.4,0.4,0.7,0.4c0,0,0,0,0,0l3.9,0c0.1,0.7,0.3,1.5,0.6,2.2l-3.4,1.9c-0.2,0.1-0.4,0.4-0.4,0.8
			c0,0.3,0.1,0.6,0.3,0.9c0.4,0.7,1.1,0.9,1.5,0.7l3.4-1.9c0.5,0.6,1,1.1,1.6,1.6l-1.9,3.4c-0.1,0.1-0.1,0.2-0.1,0.3
			c0,0.4,0.2,0.9,0.8,1.2c0.6,0.4,1.4,0.3,1.7-0.2l1.9-3.4c0.7,0.3,1.4,0.5,2.1,0.6v3.9c0,0.2,0.1,0.5,0.4,0.7
			c0.3,0.2,0.6,0.3,1,0.3c0.4,0,0.7-0.1,1-0.3c0.3-0.2,0.4-0.4,0.4-0.7l0-3.9c0.8-0.1,1.5-0.3,2.2-0.6l1.9,3.4
			c0.1,0.2,0.4,0.4,0.8,0.4c0,0,0,0,0,0c0.3,0,0.6-0.1,0.9-0.3c0.5-0.3,0.8-0.8,0.8-1.2c0-0.1,0-0.2-0.1-0.3l-1.9-3.4
			c0.6-0.5,1.1-1,1.6-1.6l3.4,1.9c0.1,0.1,0.2,0.1,0.3,0.1c0.4,0,0.9-0.2,1.2-0.8c0.1-0.3,0.2-0.6,0.2-0.8c0-0.4-0.1-0.7-0.4-0.8
			l-3.4-1.9c0.2-0.4,0.3-0.9,0.4-1.4l-0.5-0.3c-0.1,0.6-0.3,1.1-0.5,1.6L64,16.7l3.8,2.2c0,0,0.1,0.2,0.1,0.4c0,0.2-0.1,0.4-0.2,0.6
			c-0.2,0.4-0.6,0.6-0.8,0.6c-0.1,0-0.1,0-0.1,0l-3.8-2.2L63,18.4c-0.5,0.7-1.1,1.3-1.8,1.8L61,20.4l2.2,3.7c0,0,0,0,0,0.1
			c0,0.2-0.1,0.5-0.6,0.7c-0.2,0.1-0.4,0.2-0.6,0.2c0,0,0,0,0,0c-0.2,0-0.4-0.1-0.4-0.1l-2.2-3.7l-0.2,0.1c-0.8,0.3-1.6,0.6-2.5,0.7
			l-0.2,0l0,4.3c0,0,0,0.1-0.2,0.3c-0.4,0.3-1,0.3-1.4,0c-0.1-0.1-0.2-0.2-0.2-0.3v-4.3l-0.2,0c-0.8-0.1-1.7-0.3-2.4-0.6l-0.2-0.1
			L49.7,25c0,0-0.1,0.1-0.4,0.1c-0.2,0-0.4-0.1-0.6-0.2c-0.4-0.2-0.6-0.6-0.6-0.8c0-0.1,0-0.1,0-0.1l2.2-3.8l-0.2-0.1
			c-0.7-0.5-1.3-1.1-1.8-1.8l-0.1-0.2l-3.8,2.2c0,0,0,0-0.1,0c-0.2,0-0.5-0.1-0.7-0.6c-0.1-0.2-0.2-0.4-0.2-0.6
			c0-0.2,0.1-0.4,0.1-0.4l3.7-2.2l-0.1-0.2c-0.3-0.8-0.6-1.6-0.7-2.5l0-0.2l-4.3,0c0,0-0.2-0.1-0.3-0.2c-0.1-0.2-0.2-0.4-0.2-0.7
			c0-0.3,0.1-0.5,0.2-0.7c0.1-0.1,0.2-0.2,0.3-0.2h0h4.3l0-0.2c0.1-0.9,0.3-1.7,0.7-2.5l0.1-0.2L43.6,7c0,0-0.1-0.1-0.1-0.4
			c0-0.2,0.1-0.4,0.2-0.6c0.2-0.4,0.6-0.6,0.8-0.6c0.1,0,0.1,0,0.1,0l3.8,2.2l0.1-0.2c0.3-0.5,0.8-0.9,1.2-1.3l-0.5-0.3
			C48.7,6.2,48.4,6.6,48.1,7z"/>
		<path class="st1" d="M48.1,7L44.7,5c-0.1-0.1-0.2-0.1-0.4-0.1c-0.4,0-0.9,0.3-1.2,0.8C43,6,42.9,6.3,42.9,6.6
			c0,0.4,0.1,0.7,0.4,0.8l3.4,1.9c-0.3,0.7-0.5,1.4-0.6,2.2h-3.9c0,0,0,0,0,0c-0.2,0-0.5,0.1-0.7,0.4c-0.2,0.3-0.3,0.6-0.3,1
			c0,0.4,0.1,0.7,0.3,1c0.2,0.3,0.4,0.4,0.7,0.4c0,0,0,0,0,0l3.9,0c0.1,0.7,0.3,1.5,0.6,2.2l-3.4,1.9c-0.2,0.1-0.4,0.4-0.4,0.8
			c0,0.3,0.1,0.6,0.3,0.9c0.4,0.7,1.1,0.9,1.5,0.7l3.4-1.9c0.5,0.6,1,1.1,1.6,1.6l-1.9,3.4c-0.1,0.1-0.1,0.2-0.1,0.3
			c0,0.4,0.2,0.9,0.8,1.2c0.6,0.4,1.4,0.3,1.7-0.2l1.9-3.4c0.7,0.3,1.4,0.5,2.1,0.6v3.9c0,0.2,0.1,0.5,0.4,0.7
			c0.3,0.2,0.6,0.3,1,0.3c0.4,0,0.7-0.1,1-0.3c0.3-0.2,0.4-0.4,0.4-0.7l0-3.9c0.8-0.1,1.5-0.3,2.2-0.6l1.9,3.4
			c0.1,0.2,0.4,0.4,0.8,0.4c0,0,0,0,0,0c0.3,0,0.6-0.1,0.9-0.3c0.5-0.3,0.8-0.8,0.8-1.2c0-0.1,0-0.2-0.1-0.3l-1.9-3.4
			c0.6-0.5,1.1-1,1.6-1.6l3.4,1.9c0.1,0.1,0.2,0.1,0.3,0.1c0.4,0,0.9-0.2,1.2-0.8c0.1-0.3,0.2-0.6,0.2-0.8c0-0.4-0.1-0.7-0.4-0.8
			l-3.4-1.9c0.2-0.4,0.3-0.9,0.4-1.4l-0.5-0.3c-0.1,0.6-0.3,1.1-0.5,1.6L64,16.7l3.8,2.2c0,0,0.1,0.2,0.1,0.4c0,0.2-0.1,0.4-0.2,0.6
			c-0.2,0.4-0.6,0.6-0.8,0.6c-0.1,0-0.1,0-0.1,0l-3.8-2.2L63,18.4c-0.5,0.7-1.1,1.3-1.8,1.8L61,20.4l2.2,3.7c0,0,0,0,0,0.1
			c0,0.2-0.1,0.5-0.6,0.7c-0.2,0.1-0.4,0.2-0.6,0.2c0,0,0,0,0,0c-0.2,0-0.4-0.1-0.4-0.1l-2.2-3.7l-0.2,0.1c-0.8,0.3-1.6,0.6-2.5,0.7
			l-0.2,0l0,4.3c0,0,0,0.1-0.2,0.3c-0.4,0.3-1,0.3-1.4,0c-0.1-0.1-0.2-0.2-0.2-0.3v-4.3l-0.2,0c-0.8-0.1-1.7-0.3-2.4-0.6l-0.2-0.1
			L49.7,25c0,0-0.1,0.1-0.4,0.1c-0.2,0-0.4-0.1-0.6-0.2c-0.4-0.2-0.6-0.6-0.6-0.8c0-0.1,0-0.1,0-0.1l2.2-3.8l-0.2-0.1
			c-0.7-0.5-1.3-1.1-1.8-1.8l-0.1-0.2l-3.8,2.2c0,0,0,0-0.1,0c-0.2,0-0.5-0.1-0.7-0.6c-0.1-0.2-0.2-0.4-0.2-0.6
			c0-0.2,0.1-0.4,0.1-0.4l3.7-2.2l-0.1-0.2c-0.3-0.8-0.6-1.6-0.7-2.5l0-0.2l-4.3,0c0,0-0.2-0.1-0.3-0.2c-0.1-0.2-0.2-0.4-0.2-0.7
			c0-0.3,0.1-0.5,0.2-0.7c0.1-0.1,0.2-0.2,0.3-0.2h0h4.3l0-0.2c0.1-0.9,0.3-1.7,0.7-2.5l0.1-0.2L43.6,7c0,0-0.1-0.1-0.1-0.4
			c0-0.2,0.1-0.4,0.2-0.6c0.2-0.4,0.6-0.6,0.8-0.6c0.1,0,0.1,0,0.1,0l3.8,2.2l0.1-0.2c0.3-0.5,0.8-0.9,1.2-1.3l-0.5-0.3
			C48.7,6.2,48.4,6.6,48.1,7z"/>
	</g>
	<g>
		<path class="st0" d="M92.1,27.4c-0.7-0.2-1.4-0.5-1.9-0.9c-0.6-0.4-1.1-0.9-1.6-1.4c-0.4-0.6-0.8-1.2-1-2
			c-0.2-0.8-0.4-1.6-0.4-2.5c0-0.8,0.1-1.6,0.3-2.3s0.5-1.4,0.9-2c0.4-0.6,0.9-1.1,1.4-1.5c0.6-0.4,1.2-0.8,2-1s1.6-0.4,2.5-0.4
			c0.7,0,1.3,0.1,1.9,0.3c0.6,0.2,1.3,0.5,1.9,0.9c0.6,0.4,1.2,0.9,1.7,1.5l-2,1.7c-0.4-0.5-1-1-1.6-1.3S95,16,94.3,16
			c-0.3,0-0.7,0-1,0.1c-0.3,0.1-0.6,0.2-0.9,0.3c-0.3,0.1-0.5,0.3-0.8,0.5c-0.2,0.2-0.5,0.4-0.6,0.7s-0.4,0.5-0.5,0.8
			c-0.1,0.3-0.2,0.6-0.3,1c-0.1,0.4-0.1,0.7-0.1,1.1c0,0.9,0.2,1.6,0.5,2.3c0.4,0.7,0.9,1.2,1.5,1.6c0.6,0.4,1.4,0.6,2.2,0.6
			c0.7,0,1.4-0.2,2-0.5s1.1-0.7,1.6-1.3l2,1.7c-0.6,0.8-1.4,1.4-2.4,1.9c-0.9,0.5-2,0.7-3.2,0.7C93.6,27.6,92.8,27.6,92.1,27.4z"/>
		<path class="st0" d="M105.7,27.1c-0.9-0.4-1.6-0.9-2.3-1.5c-0.6-0.6-1.1-1.4-1.4-2.3c-0.3-0.9-0.5-1.8-0.5-2.9s0.2-2,0.5-2.9
			c0.3-0.9,0.8-1.6,1.4-2.3c0.6-0.6,1.4-1.1,2.3-1.5s1.9-0.5,2.9-0.5c1,0,2,0.2,2.8,0.5c0.9,0.3,1.6,0.8,2.2,1.4
			c0.6,0.6,1.1,1.4,1.5,2.3s0.5,1.9,0.5,2.9c0,1-0.2,2-0.5,2.9s-0.9,1.6-1.5,2.3c-0.6,0.6-1.4,1.1-2.2,1.4c-0.9,0.3-1.8,0.5-2.8,0.5
			C107.5,27.7,106.6,27.5,105.7,27.1z M110.3,24.7c0.5-0.2,1-0.5,1.3-1c0.4-0.4,0.7-0.9,0.9-1.5c0.2-0.6,0.3-1.2,0.3-1.8
			c0-0.9-0.2-1.6-0.6-2.3c-0.4-0.7-0.9-1.2-1.5-1.6c-0.6-0.4-1.4-0.6-2.2-0.6c-0.8,0-1.6,0.2-2.2,0.6c-0.7,0.4-1.2,1-1.5,1.7
			c-0.4,0.7-0.5,1.5-0.5,2.3c0,0.8,0.2,1.6,0.5,2.3c0.4,0.7,0.9,1.2,1.5,1.7c0.7,0.4,1.4,0.6,2.2,0.6
			C109.2,25.1,109.7,25,110.3,24.7z"/>
		<path class="st0" d="M129,13.5l-5.2,14h-2.4l-5.2-14h3l3.4,10h0l3.4-10H129z"/>
		<path class="st0" d="M131,13.5h2.8v14H131V13.5z"/>
		<path class="st0" d="M136.9,13.5h4.6c1.1,0,2.1,0.2,3,0.5s1.7,0.8,2.3,1.4s1.1,1.4,1.4,2.2c0.3,0.9,0.5,1.8,0.5,2.8
			c0,1-0.2,2-0.5,2.8c-0.3,0.9-0.8,1.6-1.4,2.2c-0.6,0.6-1.4,1.1-2.3,1.4s-1.9,0.5-3,0.5h-4.7V13.5z M141.4,25
			c0.7,0,1.3-0.1,1.8-0.3c0.6-0.2,1-0.5,1.4-0.9c0.4-0.4,0.7-0.9,0.9-1.4c0.2-0.6,0.3-1.1,0.3-1.8c0-0.9-0.2-1.6-0.6-2.3
			c-0.4-0.7-0.9-1.2-1.5-1.6c-0.7-0.4-1.4-0.6-2.2-0.6h-1.9v9H141.4z"/>
		<path class="st0" d="M150.7,20.2h6v2.4h-6V20.2z"/>
		<path class="st0" d="M160.2,17.2l-2.3,1.7l-1.3-2l4.1-2.9h2.1v13.5h-2.7V17.2z"/>
		<path class="st0" d="M171.2,14c0.4,0.1,0.7,0.2,1,0.4c0.3,0.2,0.6,0.4,0.9,0.6c0.3,0.2,0.5,0.5,0.7,0.8c0.2,0.3,0.4,0.6,0.6,1
			c0.2,0.4,0.3,0.7,0.4,1.2c0.1,0.4,0.1,0.9,0.1,1.3c0,1.1-0.2,2.1-0.5,3.1c-0.4,1-0.8,1.9-1.5,2.6c-0.6,0.8-1.4,1.4-2.3,1.9
			s-1.9,0.9-2.9,1.1l-0.8-2.2c1.3-0.4,2.3-0.8,3.1-1.4c0.8-0.6,1.4-1.4,1.8-2.3l0,0c-0.8,0.4-1.6,0.6-2.5,0.6
			c-0.5,0-0.9-0.1-1.3-0.2c-0.4-0.1-0.8-0.3-1.1-0.6c-0.3-0.2-0.6-0.5-0.9-0.9c-0.3-0.3-0.4-0.7-0.6-1.2s-0.2-1-0.2-1.5
			c0-0.7,0.1-1.3,0.4-1.8c0.2-0.6,0.6-1,1-1.4c0.4-0.4,0.9-0.7,1.5-0.9s1.2-0.3,1.9-0.3C170.4,13.8,170.8,13.9,171.2,14z
			 M168.4,19.9c0.4,0.4,0.9,0.6,1.6,0.6c0.4,0,0.9-0.1,1.3-0.3c0.4-0.2,0.8-0.5,1.1-0.9V19c0-0.8-0.2-1.5-0.6-2
			c-0.4-0.5-1-0.8-1.6-0.8c-0.7,0-1.2,0.2-1.6,0.6c-0.4,0.4-0.6,0.9-0.6,1.5C167.8,19,168,19.5,168.4,19.9z"/>
		<path class="st0" d="M91.5,46.9c-0.9-0.3-1.6-0.8-2.3-1.4s-1.1-1.3-1.5-2.2c-0.4-0.9-0.5-1.9-0.5-3c0-1,0.2-2,0.5-2.8
			c0.3-0.9,0.8-1.6,1.4-2.3s1.3-1.1,2.2-1.5c0.9-0.4,1.9-0.5,2.9-0.5c1,0,2,0.2,3,0.6s1.8,1,2.5,1.8l-2,1.7c-1-1-2.2-1.4-3.6-1.4
			c-0.6,0-1.1,0.1-1.6,0.3s-0.9,0.5-1.3,0.9c-0.4,0.4-0.7,0.9-0.9,1.4c-0.2,0.6-0.3,1.2-0.3,1.9c0,0.9,0.2,1.6,0.5,2.3
			c0.3,0.7,0.8,1.2,1.5,1.6s1.4,0.6,2.3,0.6c1,0,2-0.3,2.8-0.8V42h-3.1v-2.4h5.8v6c-0.6,0.5-1.5,0.9-2.4,1.3c-1,0.3-2,0.5-3.1,0.5
			C93.4,47.4,92.4,47.3,91.5,46.9z"/>
		<path class="st0" d="M102.6,33.3h8.9v2.5h-6.2v3.3h5v2.4h-5v3.2h6.6v2.5h-9.3V33.3z"/>
		<path class="st0" d="M126.2,33.3v14h-2.8l-6.1-9.3h0v9.3h-2.8v-14h2.8l6.2,9.4h0v-9.4H126.2z"/>
		<path class="st0" d="M132.9,46.9c-0.9-0.4-1.6-0.9-2.3-1.5c-0.6-0.6-1.1-1.4-1.5-2.3c-0.3-0.9-0.5-1.8-0.5-2.9s0.2-2,0.5-2.9
			c0.3-0.9,0.8-1.6,1.5-2.3c0.6-0.6,1.4-1.1,2.3-1.5c0.9-0.4,1.9-0.5,2.9-0.5c1,0,2,0.2,2.8,0.5c0.9,0.3,1.6,0.8,2.3,1.4
			c0.6,0.6,1.1,1.4,1.5,2.3s0.5,1.9,0.5,2.9c0,1-0.2,2-0.5,2.9c-0.4,0.9-0.9,1.6-1.5,2.3c-0.6,0.6-1.4,1.1-2.3,1.4
			c-0.9,0.3-1.8,0.5-2.8,0.5C134.7,47.4,133.8,47.3,132.9,46.9z M137.5,44.5c0.5-0.2,1-0.5,1.3-1c0.4-0.4,0.7-0.9,0.9-1.5
			c0.2-0.6,0.3-1.2,0.3-1.8c0-0.9-0.2-1.6-0.6-2.3c-0.4-0.7-0.9-1.2-1.5-1.6c-0.6-0.4-1.4-0.6-2.2-0.6c-0.8,0-1.6,0.2-2.2,0.6
			c-0.7,0.4-1.2,1-1.5,1.7c-0.4,0.7-0.5,1.5-0.5,2.3c0,0.8,0.2,1.6,0.5,2.3c0.4,0.7,0.9,1.2,1.5,1.7c0.7,0.4,1.4,0.6,2.2,0.6
			C136.4,44.9,136.9,44.8,137.5,44.5z"/>
		<path class="st0" d="M159.5,33.3v14h-2.7v-8.7h0l-3.4,6h-1.8l-3.4-6h0v8.7h-2.7v-14h2.8l4.3,7.9h0l4.3-7.9H159.5z"/>
		<path class="st0" d="M162.7,33.3h2.8v14h-2.8V33.3z"/>
		<path class="st0" d="M173,47.1c-0.7-0.2-1.4-0.5-1.9-0.9c-0.6-0.4-1.1-0.9-1.6-1.4c-0.4-0.6-0.8-1.2-1-2c-0.2-0.8-0.4-1.6-0.4-2.5
			c0-0.8,0.1-1.6,0.3-2.3s0.5-1.4,0.9-2c0.4-0.6,0.9-1.1,1.4-1.5c0.6-0.4,1.2-0.8,2-1s1.6-0.4,2.5-0.4c0.7,0,1.3,0.1,1.9,0.3
			c0.6,0.2,1.3,0.5,1.9,0.9c0.6,0.4,1.2,0.9,1.7,1.5l-2,1.7c-0.4-0.5-1-1-1.6-1.3s-1.3-0.5-2-0.5c-0.3,0-0.7,0-1,0.1
			c-0.3,0.1-0.6,0.2-0.9,0.3c-0.3,0.1-0.5,0.3-0.8,0.5c-0.2,0.2-0.5,0.4-0.6,0.7s-0.4,0.5-0.5,0.8c-0.1,0.3-0.2,0.6-0.3,1
			c-0.1,0.4-0.1,0.7-0.1,1.1c0,0.9,0.2,1.6,0.5,2.3c0.4,0.7,0.9,1.2,1.5,1.6c0.6,0.4,1.4,0.6,2.2,0.6c0.7,0,1.4-0.2,2-0.5
			s1.1-0.7,1.6-1.3l2,1.7c-0.6,0.8-1.4,1.4-2.4,1.9c-0.9,0.5-2,0.7-3.2,0.7C174.4,47.4,173.7,47.3,173,47.1z"/>
		<path class="st0" d="M184.4,46.9c-0.9-0.4-1.7-0.9-2.4-1.7l1.7-2c0.3,0.3,0.5,0.6,0.8,0.8s0.6,0.4,0.9,0.5s0.6,0.2,0.9,0.3
			s0.6,0.1,0.9,0.1c0.4,0,0.8-0.1,1.1-0.2c0.3-0.1,0.5-0.3,0.7-0.5c0.1-0.2,0.2-0.5,0.2-0.8c0-0.2,0-0.4-0.1-0.5
			c-0.1-0.2-0.2-0.3-0.3-0.4c-0.1-0.1-0.3-0.2-0.5-0.4c-0.2-0.1-0.4-0.2-0.7-0.3s-0.5-0.2-0.9-0.3c-0.3-0.1-0.6-0.2-0.9-0.3
			c-0.3-0.1-0.5-0.2-0.9-0.4c-0.3-0.2-0.6-0.3-0.8-0.5c-0.2-0.2-0.4-0.3-0.7-0.6s-0.4-0.5-0.5-0.7c-0.1-0.2-0.2-0.5-0.3-0.9
			c-0.1-0.3-0.1-0.7-0.1-1c0-0.7,0.2-1.4,0.6-2c0.4-0.6,0.9-1.1,1.6-1.4s1.4-0.5,2.3-0.5c1.7,0,3.3,0.6,4.7,1.8l-1.6,2.1
			c-1.1-0.9-2.1-1.4-3-1.4c-0.5,0-0.9,0.1-1.2,0.4c-0.3,0.2-0.5,0.6-0.5,1c0,0.2,0,0.3,0.1,0.5c0.1,0.1,0.2,0.3,0.3,0.4
			c0.1,0.1,0.3,0.2,0.5,0.3c0.2,0.1,0.4,0.2,0.6,0.3c0.2,0.1,0.5,0.2,0.9,0.3c1.2,0.5,1.9,0.8,2.3,1c0.9,0.5,1.4,1.1,1.7,1.8
			c0.2,0.4,0.3,0.9,0.3,1.5c0,0.6-0.1,1.1-0.3,1.6s-0.5,0.9-0.8,1.2s-0.7,0.6-1.1,0.8c-0.4,0.2-0.9,0.4-1.3,0.5
			c-0.5,0.1-0.9,0.1-1.4,0.1C186.2,47.4,185.3,47.3,184.4,46.9z"/>
		<path class="st0" d="M91,66.8c-0.7-0.3-1.3-0.6-1.8-1.1c-0.5-0.5-0.9-1.1-1.1-1.9c-0.3-0.7-0.4-1.6-0.4-2.5v-8.2h2.8v8
			c0,0.7,0.1,1.3,0.3,1.8c0.2,0.5,0.5,0.9,1,1.3c0.4,0.3,1,0.5,1.5,0.5c0.9,0,1.6-0.3,2.1-0.9c0.5-0.6,0.8-1.5,0.8-2.6v-8h2.8v8.2
			c0,1.2-0.2,2.3-0.7,3.1c-0.4,0.9-1.1,1.6-1.9,2.1s-1.9,0.7-3.1,0.7C92.4,67.2,91.6,67.1,91,66.8z"/>
		<path class="st0" d="M105.9,61.5l-1.4,1.6v4h-2.8v-14h2.8v6.2h0l4.8-6.2h3.5l-5.1,6.2l5.3,7.8h-3.4L105.9,61.5L105.9,61.5z"/>
		<path class="st0" d="M124.4,66.9c-0.7-0.2-1.4-0.5-1.9-0.9c-0.6-0.4-1.1-0.9-1.6-1.4c-0.4-0.6-0.8-1.2-1-2
			c-0.2-0.8-0.4-1.6-0.4-2.5c0-0.8,0.1-1.6,0.3-2.3s0.5-1.4,0.9-2c0.4-0.6,0.9-1.1,1.4-1.5c0.6-0.4,1.2-0.8,2-1s1.6-0.4,2.5-0.4
			c0.7,0,1.3,0.1,1.9,0.3c0.6,0.2,1.3,0.5,1.9,0.9c0.6,0.4,1.2,0.9,1.7,1.5l-2,1.7c-0.4-0.5-1-1-1.6-1.3c-0.6-0.3-1.3-0.5-2-0.5
			c-0.3,0-0.7,0-1,0.1c-0.3,0.1-0.6,0.2-0.9,0.3c-0.3,0.1-0.5,0.3-0.8,0.5c-0.2,0.2-0.5,0.4-0.6,0.7s-0.4,0.5-0.5,0.8
			c-0.1,0.3-0.2,0.6-0.3,1c-0.1,0.4-0.1,0.7-0.1,1.1c0,0.9,0.2,1.6,0.5,2.3c0.4,0.7,0.9,1.2,1.5,1.6c0.6,0.4,1.4,0.6,2.2,0.6
			c0.7,0,1.4-0.2,2-0.5c0.6-0.3,1.1-0.7,1.6-1.3l2,1.7c-0.6,0.8-1.4,1.4-2.4,1.9c-0.9,0.5-2,0.7-3.2,0.7
			C125.9,67.2,125.1,67.1,124.4,66.9z"/>
		<path class="st0" d="M138,66.7c-0.9-0.4-1.6-0.9-2.3-1.5c-0.6-0.6-1.1-1.4-1.5-2.3c-0.3-0.9-0.5-1.8-0.5-2.9s0.2-2,0.5-2.9
			c0.3-0.9,0.8-1.6,1.5-2.3c0.6-0.6,1.4-1.1,2.3-1.5s1.9-0.5,2.9-0.5c1,0,2,0.2,2.8,0.5c0.9,0.3,1.6,0.8,2.3,1.4
			c0.6,0.6,1.1,1.4,1.5,2.3s0.5,1.9,0.5,2.9c0,1-0.2,2-0.5,2.9s-0.9,1.6-1.5,2.3c-0.6,0.6-1.4,1.1-2.3,1.4c-0.9,0.3-1.8,0.5-2.8,0.5
			C139.8,67.2,138.9,67,138,66.7z M142.5,64.3c0.5-0.2,1-0.5,1.3-1c0.4-0.4,0.7-0.9,0.9-1.5c0.2-0.6,0.3-1.2,0.3-1.8
			c0-0.9-0.2-1.6-0.6-2.3c-0.4-0.7-0.9-1.2-1.5-1.6c-0.6-0.4-1.4-0.6-2.2-0.6c-0.8,0-1.6,0.2-2.2,0.6c-0.7,0.4-1.2,1-1.5,1.7
			c-0.4,0.7-0.5,1.5-0.5,2.3c0,0.8,0.2,1.6,0.5,2.3c0.4,0.7,0.9,1.2,1.5,1.7c0.7,0.4,1.4,0.6,2.2,0.6
			C141.5,64.6,142,64.5,142.5,64.3z"/>
		<path class="st0" d="M162.2,53.1v14h-2.8l-6.1-9.3h0v9.3h-2.8v-14h2.8l6.2,9.4h0v-9.4H162.2z"/>
		<path class="st0" d="M166.8,66.7c-0.9-0.4-1.7-0.9-2.4-1.7l1.7-2c0.3,0.3,0.5,0.6,0.8,0.8s0.6,0.4,0.9,0.5s0.6,0.2,0.9,0.3
			s0.6,0.1,0.9,0.1c0.4,0,0.8-0.1,1.1-0.2c0.3-0.1,0.5-0.3,0.7-0.5c0.1-0.2,0.2-0.5,0.2-0.8c0-0.2,0-0.4-0.1-0.5
			c-0.1-0.2-0.2-0.3-0.3-0.4c-0.1-0.1-0.3-0.2-0.5-0.4c-0.2-0.1-0.4-0.2-0.7-0.3s-0.5-0.2-0.9-0.3c-0.3-0.1-0.6-0.2-0.9-0.3
			c-0.3-0.1-0.5-0.2-0.9-0.4c-0.3-0.2-0.6-0.3-0.8-0.5c-0.2-0.2-0.4-0.3-0.7-0.6s-0.4-0.5-0.5-0.7c-0.1-0.2-0.2-0.5-0.3-0.9
			c-0.1-0.3-0.1-0.7-0.1-1c0-0.7,0.2-1.4,0.6-2c0.4-0.6,0.9-1.1,1.6-1.4s1.4-0.5,2.3-0.5c1.7,0,3.3,0.6,4.7,1.8l-1.6,2.1
			c-1.1-0.9-2.1-1.4-3-1.4c-0.5,0-0.9,0.1-1.2,0.4c-0.3,0.2-0.5,0.6-0.5,1c0,0.2,0,0.3,0.1,0.5c0.1,0.1,0.2,0.3,0.3,0.4
			c0.1,0.1,0.3,0.2,0.5,0.3c0.2,0.1,0.4,0.2,0.6,0.3c0.2,0.1,0.5,0.2,0.9,0.3c1.2,0.5,1.9,0.8,2.3,1c0.9,0.5,1.4,1.1,1.7,1.8
			c0.2,0.4,0.3,0.9,0.3,1.5c0,0.6-0.1,1.1-0.3,1.6s-0.5,0.9-0.8,1.2s-0.7,0.6-1.1,0.8c-0.4,0.2-0.9,0.4-1.3,0.5
			c-0.5,0.1-0.9,0.1-1.4,0.1C168.6,67.2,167.7,67,166.8,66.7z"/>
		<path class="st0" d="M180.4,66.7c-0.9-0.4-1.6-0.9-2.3-1.5c-0.6-0.6-1.1-1.4-1.4-2.3c-0.3-0.9-0.5-1.8-0.5-2.9s0.2-2,0.5-2.9
			c0.3-0.9,0.8-1.6,1.4-2.3c0.6-0.6,1.4-1.1,2.3-1.5s1.9-0.5,2.9-0.5c1,0,2,0.2,2.8,0.5c0.9,0.3,1.6,0.8,2.2,1.4
			c0.6,0.6,1.1,1.4,1.5,2.3s0.5,1.9,0.5,2.9c0,1-0.2,2-0.5,2.9s-0.9,1.6-1.5,2.3c-0.6,0.6-1.4,1.1-2.2,1.4c-0.9,0.3-1.8,0.5-2.8,0.5
			C182.3,67.2,181.3,67,180.4,66.7z M185,64.3c0.5-0.2,1-0.5,1.3-1c0.4-0.4,0.7-0.9,0.9-1.5c0.2-0.6,0.3-1.2,0.3-1.8
			c0-0.9-0.2-1.6-0.6-2.3c-0.4-0.7-0.9-1.2-1.5-1.6c-0.6-0.4-1.4-0.6-2.2-0.6c-0.8,0-1.6,0.2-2.2,0.6c-0.7,0.4-1.2,1-1.5,1.7
			c-0.4,0.7-0.5,1.5-0.5,2.3c0,0.8,0.2,1.6,0.5,2.3c0.4,0.7,0.9,1.2,1.5,1.7c0.7,0.4,1.4,0.6,2.2,0.6
			C183.9,64.6,184.5,64.5,185,64.3z"/>
		<path class="st0" d="M200.4,67.1l-3.1-4.8h-1.6v4.8h-2.7v-14h5.3c0.8,0,1.5,0.1,2.2,0.3s1.1,0.6,1.5,1c0.4,0.4,0.7,0.9,0.9,1.5
			s0.3,1.2,0.3,1.9c0,0.7-0.1,1.4-0.4,1.9s-0.6,1-1,1.4c-0.4,0.4-0.9,0.7-1.5,0.9v0l3.4,5.1H200.4z M195.7,59.8h1.9
			c0.8,0,1.5-0.2,1.9-0.6c0.5-0.4,0.7-0.9,0.7-1.6s-0.2-1.2-0.7-1.6s-1.1-0.6-1.8-0.6h-2.1V59.8z"/>
		<path class="st0" d="M208.3,55.6h-3.8v-2.5h10.5v2.5h-3.9v11.5h-2.8V55.6z"/>
		<path class="st0" d="M217.1,53.1h2.8v14h-2.8V53.1z"/>
		<path class="st0" d="M226.2,66.8c-0.7-0.3-1.3-0.6-1.8-1.1c-0.5-0.5-0.9-1.1-1.1-1.9c-0.3-0.7-0.4-1.6-0.4-2.5v-8.2h2.8v8
			c0,0.7,0.1,1.3,0.3,1.8c0.2,0.5,0.5,0.9,1,1.3c0.4,0.3,1,0.5,1.5,0.5c0.9,0,1.6-0.3,2.1-0.9c0.5-0.6,0.8-1.5,0.8-2.6v-8h2.8v8.2
			c0,1.2-0.2,2.3-0.7,3.1c-0.4,0.9-1.1,1.6-1.9,2.1s-1.9,0.7-3.1,0.7C227.7,67.2,226.9,67.1,226.2,66.8z"/>
		<path class="st0" d="M251.3,53.1v14h-2.7v-8.7h0l-3.4,6h-1.8l-3.4-6h0v8.7h-2.7v-14h2.8l4.3,7.9h0l4.3-7.9H251.3z"/>
	</g>
	<g>
		<path class="st2" d="M12,45.6c-0.5-0.1-1-0.4-1.5-0.7c-0.4-0.3-0.8-0.7-1.2-1.1c-0.3-0.4-0.6-0.9-0.8-1.5
			c-0.2-0.6-0.3-1.2-0.3-1.9c0-0.6,0.1-1.2,0.2-1.7c0.1-0.5,0.4-1,0.7-1.5c0.3-0.4,0.7-0.8,1.1-1.2c0.4-0.3,0.9-0.6,1.5-0.8
			s1.2-0.3,1.9-0.3c0.5,0,1,0.1,1.5,0.2c0.5,0.1,1,0.4,1.4,0.7c0.5,0.3,0.9,0.7,1.3,1.1l-1.5,1.3c-0.3-0.4-0.7-0.7-1.2-1
			c-0.5-0.2-1-0.4-1.5-0.4c-0.3,0-0.5,0-0.8,0.1c-0.2,0.1-0.5,0.1-0.7,0.2c-0.2,0.1-0.4,0.2-0.6,0.4s-0.3,0.3-0.5,0.5
			s-0.3,0.4-0.4,0.6c-0.1,0.2-0.2,0.5-0.2,0.7c-0.1,0.3-0.1,0.6-0.1,0.9c0,0.6,0.1,1.2,0.4,1.7c0.3,0.5,0.6,0.9,1.1,1.2
			c0.5,0.3,1,0.4,1.6,0.4c0.5,0,1-0.1,1.5-0.4c0.5-0.2,0.9-0.6,1.2-1l1.5,1.3c-0.5,0.6-1.1,1.1-1.8,1.4c-0.7,0.4-1.5,0.5-2.4,0.5
			C13.1,45.8,12.5,45.7,12,45.6z"/>
		<path class="st2" d="M21.7,45.4c-0.7-0.3-1.2-0.6-1.7-1.1c-0.5-0.5-0.8-1-1.1-1.7c-0.3-0.7-0.4-1.4-0.4-2.2c0-0.8,0.1-1.5,0.4-2.2
			c0.3-0.7,0.6-1.2,1.1-1.7c0.5-0.5,1-0.8,1.7-1.1s1.4-0.4,2.2-0.4c0.8,0,1.5,0.1,2.1,0.4c0.7,0.3,1.2,0.6,1.7,1.1
			c0.5,0.5,0.8,1,1.1,1.7s0.4,1.4,0.4,2.2S29,42,28.8,42.6c-0.3,0.7-0.6,1.2-1.1,1.7c-0.5,0.5-1,0.8-1.7,1.1
			c-0.7,0.3-1.4,0.4-2.1,0.4C23,45.8,22.3,45.7,21.7,45.4z M25.1,43.6c0.4-0.2,0.7-0.4,1-0.7c0.3-0.3,0.5-0.7,0.7-1.1
			c0.2-0.4,0.2-0.9,0.2-1.4c0-0.7-0.1-1.2-0.4-1.8c-0.3-0.5-0.7-0.9-1.1-1.2c-0.5-0.3-1-0.4-1.6-0.4c-0.6,0-1.2,0.2-1.7,0.5
			c-0.5,0.3-0.9,0.7-1.1,1.2c-0.3,0.5-0.4,1.1-0.4,1.7c0,0.6,0.1,1.2,0.4,1.7c0.3,0.5,0.6,0.9,1.1,1.2c0.5,0.3,1,0.5,1.7,0.5
			C24.3,43.9,24.7,43.8,25.1,43.6z"/>
		<path class="st2" d="M33.3,45.4c-0.7-0.2-1.2-0.6-1.7-1c-0.5-0.4-0.9-1-1.1-1.7c-0.3-0.7-0.4-1.4-0.4-2.2c0-0.8,0.1-1.5,0.4-2.1
			c0.2-0.7,0.6-1.2,1-1.7c0.4-0.5,1-0.9,1.7-1.1c0.7-0.3,1.4-0.4,2.2-0.4c0.8,0,1.5,0.2,2.3,0.5c0.7,0.3,1.4,0.8,1.9,1.3l-1.5,1.2
			c-0.8-0.7-1.7-1.1-2.7-1.1c-0.4,0-0.8,0.1-1.2,0.2c-0.4,0.2-0.7,0.4-1,0.7s-0.5,0.7-0.7,1.1s-0.2,0.9-0.2,1.4
			c0,0.6,0.1,1.2,0.4,1.7c0.3,0.5,0.6,0.9,1.1,1.2c0.5,0.3,1.1,0.5,1.7,0.5c0.8,0,1.5-0.2,2.1-0.6v-1.5h-2.4V40h4.4v4.5
			c-0.5,0.4-1.1,0.7-1.8,0.9c-0.7,0.2-1.5,0.4-2.3,0.4C34.7,45.8,34,45.7,33.3,45.4z"/>
		<path class="st2" d="M40.7,40.2h4.5V42h-4.5V40.2z"/>
		<path class="st2" d="M48.9,45.5c-0.5-0.2-1-0.5-1.3-0.9c-0.4-0.4-0.7-0.8-0.9-1.4c-0.2-0.6-0.3-1.2-0.3-1.9v-6.2h2.1v6
			c0,0.5,0.1,1,0.2,1.4c0.2,0.4,0.4,0.7,0.7,0.9c0.3,0.2,0.7,0.3,1.2,0.3c0.7,0,1.2-0.2,1.6-0.7c0.4-0.5,0.6-1.1,0.6-1.9v-6h2.1v6.2
			c0,0.9-0.2,1.7-0.5,2.4c-0.3,0.7-0.8,1.2-1.5,1.6c-0.6,0.4-1.4,0.5-2.3,0.5C50,45.8,49.4,45.7,48.9,45.5z"/>
		<path class="st2" d="M59.6,41.5l-1,1.2v3h-2.1V35.2h2.1v4.6h0l3.6-4.6h2.6L61,39.8l4,5.9h-2.6L59.6,41.5L59.6,41.5z"/>
	</g>
	<path class="st3" d="M55.3,62c-0.1-0.1-0.2-0.1-0.2-0.1h-2c-0.1-0.4-0.2-0.8-0.3-1.2l1.7-1c0.1,0,0.1-0.1,0.1-0.3
		c0-0.1,0-0.2-0.1-0.4l0,0c-0.1-0.2-0.3-0.3-0.5-0.3c0,0,0,0,0,0c0,0-0.1,0-0.1,0l-1.7,1c-0.3-0.3-0.6-0.6-0.9-0.9l1-1.7
		c0,0,0-0.1,0-0.1c0-0.1-0.1-0.3-0.3-0.5l0,0c-0.1-0.1-0.2-0.1-0.3-0.1c0,0,0,0,0,0c-0.1,0-0.3,0.1-0.3,0.1l-1,1.7
		c-0.4-0.2-0.8-0.3-1.2-0.3l0-2c0-0.1,0-0.2-0.1-0.2c-0.1-0.1-0.2-0.1-0.4-0.1h0c-0.2,0-0.3,0.1-0.4,0.1c-0.1,0.1-0.1,0.2-0.1,0.2v2
		c-0.4,0.1-0.8,0.2-1.2,0.3l-1-1.7c0-0.1-0.1-0.1-0.3-0.1c-0.1,0-0.2,0-0.4,0.1l0,0c-0.2,0.1-0.3,0.3-0.3,0.5v0c0,0,0,0.1,0,0.1
		l1,1.7c-0.3,0.3-0.6,0.6-0.9,0.9l-1.7-1c0,0-0.1,0-0.1,0c-0.1,0-0.3,0.1-0.5,0.3l0,0c-0.1,0.1-0.1,0.2-0.1,0.3v0
		c0,0.1,0.1,0.3,0.1,0.3l1.7,1c-0.2,0.4-0.3,0.8-0.3,1.2h-2c-0.1,0-0.2,0-0.2,0.1c-0.1,0.1-0.1,0.2-0.1,0.4c0,0.2,0.1,0.3,0.1,0.4
		c0.1,0.1,0.2,0.1,0.2,0.1l2,0c0.1,0.4,0.2,0.8,0.3,1.2l-1.7,1c-0.1,0-0.1,0.1-0.1,0.3c0,0.1,0,0.2,0.1,0.4l0,0
		c0.1,0.2,0.3,0.3,0.5,0.3c0,0,0,0,0,0c0,0,0.1,0,0.1,0l1.7-1c0.3,0.3,0.6,0.6,0.9,0.9l-1,1.7c0,0,0,0.1,0,0.1
		c0,0.1,0.1,0.3,0.3,0.5l0,0c0.1,0.1,0.2,0.1,0.3,0.1c0,0,0,0,0,0c0.1,0,0.3-0.1,0.3-0.1l1-1.7c0.4,0.2,0.8,0.3,1.2,0.3v2
		c0,0.1,0,0.2,0.1,0.2c0.1,0.1,0.2,0.1,0.4,0.1c0.2,0,0.3-0.1,0.4-0.1c0.1-0.1,0.1-0.2,0.1-0.2l0-2c0.4-0.1,0.8-0.2,1.2-0.3l1,1.7
		c0,0.1,0.1,0.1,0.3,0.1c0.1,0,0.2,0,0.4-0.1l0,0c0.2-0.1,0.3-0.3,0.3-0.5v0c0,0,0-0.1,0-0.1l-1-1.7c0.3-0.3,0.6-0.6,0.9-0.9l1.7,1
		c0,0,0.1,0,0.1,0c0.1,0,0.3-0.1,0.5-0.3l0,0c0.1-0.1,0.1-0.2,0.1-0.3v0c0-0.1-0.1-0.3-0.1-0.3l-1.7-1c0.2-0.4,0.3-0.8,0.3-1.2h2
		c0.1,0,0.2,0,0.2-0.1c0.1-0.1,0.1-0.2,0.1-0.4v0C55.4,62.2,55.4,62.1,55.3,62z"/>
	<path class="st3" d="M27.8,21.2c-0.1-0.1-0.2-0.2-0.2-0.2h-2.1c-0.1-0.5-0.2-0.9-0.3-1.3l1.8-1.1c0.1,0,0.1-0.2,0.1-0.3
		c0-0.1,0-0.3-0.1-0.4l0,0c-0.1-0.2-0.3-0.3-0.5-0.3c0,0,0,0,0,0c0,0-0.1,0-0.1,0l-1.8,1.1c-0.3-0.4-0.6-0.7-1-1l1.1-1.8
		c0,0,0-0.1,0-0.1c0-0.1-0.1-0.4-0.4-0.5l0,0c-0.1-0.1-0.3-0.1-0.4-0.1c0,0,0,0,0,0c-0.2,0-0.3,0.1-0.3,0.1l-1.1,1.8
		c-0.4-0.2-0.9-0.3-1.3-0.3l0-2.1c0-0.1,0-0.2-0.2-0.2c-0.1-0.1-0.3-0.1-0.4-0.1h0c-0.2,0-0.3,0.1-0.4,0.1C20,14.5,20,14.6,20,14.7
		v2.1c-0.5,0.1-0.9,0.2-1.3,0.3l-1.1-1.8c0-0.1-0.2-0.1-0.3-0.1c-0.1,0-0.3,0-0.4,0.1l0,0c-0.2,0.1-0.3,0.3-0.3,0.5v0
		c0,0,0,0.1,0,0.1l1.1,1.8c-0.4,0.3-0.7,0.6-1,1l-1.8-1.1c0,0-0.1,0-0.1,0c-0.1,0-0.4,0.1-0.5,0.4l0,0c-0.1,0.1-0.1,0.3-0.1,0.4v0
		c0,0.2,0.1,0.3,0.1,0.3l1.8,1.1c-0.2,0.4-0.3,0.8-0.3,1.3h-2.1c-0.1,0-0.2,0-0.2,0.2c-0.1,0.1-0.1,0.3-0.1,0.4
		c0,0.2,0.1,0.3,0.1,0.4c0.1,0.1,0.2,0.2,0.2,0.2l2.1,0c0.1,0.5,0.2,0.9,0.3,1.3l-1.8,1.1c-0.1,0-0.1,0.2-0.1,0.3
		c0,0.1,0,0.3,0.1,0.4l0,0c0.1,0.2,0.3,0.3,0.5,0.3c0,0,0,0,0,0c0,0,0.1,0,0.1,0l1.8-1.1c0.3,0.4,0.6,0.7,1,1l-1.1,1.8
		c0,0,0,0.1,0,0.1c0,0.1,0.1,0.4,0.4,0.5l0,0c0.1,0.1,0.3,0.1,0.4,0.1c0,0,0,0,0,0c0.2,0,0.3-0.1,0.3-0.1l1.1-1.8
		c0.4,0.2,0.8,0.3,1.3,0.3v2.1c0,0.1,0,0.2,0.2,0.2c0.1,0.1,0.3,0.1,0.4,0.1c0.2,0,0.3-0.1,0.4-0.1c0.1-0.1,0.2-0.2,0.2-0.2l0-2.1
		c0.5-0.1,0.9-0.2,1.3-0.3l1.1,1.8c0,0.1,0.2,0.1,0.3,0.1c0.1,0,0.3,0,0.4-0.1l0,0c0.2-0.1,0.3-0.3,0.3-0.5v0c0,0,0-0.1,0-0.1
		l-1.1-1.8c0.4-0.3,0.7-0.6,1-1l1.8,1.1c0,0,0.1,0,0.1,0c0.1,0,0.4-0.1,0.5-0.4l0,0C27,25.1,27,25,27,24.9v0c0-0.2-0.1-0.3-0.1-0.3
		L25,23.5c0.2-0.4,0.3-0.8,0.3-1.3h2.1c0.1,0,0.2,0,0.2-0.2c0.1-0.1,0.1-0.3,0.1-0.4v0C27.9,21.4,27.8,21.3,27.8,21.2z"/>
	<path class="st4" d="M65.4,55.5c0-0.1-0.1-0.1-0.1-0.1h-1.1c0-0.2-0.1-0.5-0.2-0.7l1-0.6c0,0,0.1-0.1,0.1-0.2c0-0.1,0-0.1-0.1-0.2
		l0,0c-0.1-0.1-0.2-0.2-0.3-0.2c0,0,0,0,0,0c0,0,0,0-0.1,0l-1,0.6c-0.1-0.2-0.3-0.4-0.5-0.5l0.6-1c0,0,0,0,0-0.1
		c0-0.1-0.1-0.2-0.2-0.3l0,0c-0.1,0-0.1-0.1-0.2-0.1c0,0,0,0,0,0c-0.1,0-0.1,0-0.2,0.1l-0.6,1c-0.2-0.1-0.4-0.2-0.7-0.2l0-1.1
		c0,0,0-0.1-0.1-0.1c-0.1,0-0.1-0.1-0.2-0.1h0c-0.1,0-0.2,0-0.2,0.1c-0.1,0-0.1,0.1-0.1,0.1v1.1c-0.2,0-0.5,0.1-0.7,0.2l-0.6-1
		c0,0-0.1-0.1-0.2-0.1c-0.1,0-0.1,0-0.2,0.1l0,0c-0.1,0.1-0.2,0.2-0.2,0.3v0c0,0,0,0,0,0.1l0.6,1c-0.2,0.1-0.4,0.3-0.5,0.5l-1-0.6
		c0,0,0,0-0.1,0c-0.1,0-0.2,0.1-0.3,0.2l0,0c0,0.1-0.1,0.1-0.1,0.2v0c0,0.1,0,0.1,0.1,0.2l1,0.6c-0.1,0.2-0.2,0.4-0.2,0.7H58
		c0,0-0.1,0-0.1,0.1c0,0.1-0.1,0.1-0.1,0.2c0,0.1,0,0.2,0.1,0.2C57.9,56,58,56,58,56l1.1,0c0,0.2,0.1,0.5,0.2,0.7l-1,0.6
		c0,0-0.1,0.1-0.1,0.2c0,0.1,0,0.1,0.1,0.2l0,0c0.1,0.1,0.2,0.2,0.3,0.2c0,0,0,0,0,0c0,0,0,0,0.1,0l1-0.6c0.1,0.2,0.3,0.4,0.5,0.5
		l-0.6,1c0,0,0,0,0,0.1c0,0.1,0.1,0.2,0.2,0.3l0,0c0.1,0,0.1,0.1,0.2,0.1c0,0,0,0,0,0c0.1,0,0.1,0,0.2-0.1l0.6-1
		c0.2,0.1,0.4,0.2,0.7,0.2v1.1c0,0,0,0.1,0.1,0.1c0.1,0,0.1,0.1,0.2,0.1c0.1,0,0.2,0,0.2-0.1c0.1,0,0.1-0.1,0.1-0.1l0-1.1
		c0.2,0,0.5-0.1,0.7-0.2l0.6,1c0,0,0.1,0.1,0.2,0.1c0.1,0,0.1,0,0.2-0.1l0,0c0.1-0.1,0.2-0.2,0.2-0.3v0c0,0,0,0,0-0.1l-0.6-1
		c0.2-0.1,0.4-0.3,0.5-0.5l1,0.6c0,0,0,0,0.1,0c0.1,0,0.2-0.1,0.3-0.2l0,0c0-0.1,0.1-0.1,0.1-0.2v0c0-0.1,0-0.1-0.1-0.2l-1-0.6
		c0.1-0.2,0.2-0.4,0.2-0.7h1.1c0,0,0.1,0,0.1-0.1c0-0.1,0.1-0.1,0.1-0.2v0C65.5,55.6,65.4,55.5,65.4,55.5z"/>
	<path class="st4" d="M34.6,11.2c0-0.1-0.1-0.1-0.1-0.1h-1.1c0-0.2-0.1-0.5-0.2-0.7l1-0.6c0,0,0.1-0.1,0.1-0.2c0-0.1,0-0.1-0.1-0.2
		l0,0c-0.1-0.1-0.2-0.2-0.3-0.2c0,0,0,0,0,0c0,0,0,0-0.1,0l-1,0.6c-0.1-0.2-0.3-0.4-0.5-0.5l0.6-1c0,0,0,0,0-0.1
		c0-0.1-0.1-0.2-0.2-0.3l0,0c-0.1,0-0.1-0.1-0.2-0.1c0,0,0,0,0,0c-0.1,0-0.1,0-0.2,0.1l-0.6,1c-0.2-0.1-0.4-0.2-0.7-0.2l0-1.1
		c0,0,0-0.1-0.1-0.1c-0.1,0-0.1-0.1-0.2-0.1h0c-0.1,0-0.2,0-0.2,0.1c-0.1,0-0.1,0.1-0.1,0.1v1.1c-0.2,0-0.5,0.1-0.7,0.2l-0.6-1
		c0,0-0.1-0.1-0.2-0.1c-0.1,0-0.1,0-0.2,0.1l0,0c-0.1,0.1-0.2,0.2-0.2,0.3v0c0,0,0,0,0,0.1l0.6,1c-0.2,0.1-0.4,0.3-0.5,0.5l-1-0.6
		c0,0,0,0-0.1,0c-0.1,0-0.2,0.1-0.3,0.2l0,0c0,0.1-0.1,0.1-0.1,0.2v0c0,0.1,0,0.1,0.1,0.2l1,0.6c-0.1,0.2-0.2,0.4-0.2,0.7h-1.1
		c0,0-0.1,0-0.1,0.1c0,0.1-0.1,0.1-0.1,0.2c0,0.1,0,0.2,0.1,0.2c0,0.1,0.1,0.1,0.1,0.1l1.1,0c0,0.2,0.1,0.5,0.2,0.7l-1,0.6
		c0,0-0.1,0.1-0.1,0.2c0,0.1,0,0.1,0.1,0.2l0,0c0.1,0.1,0.2,0.2,0.3,0.2c0,0,0,0,0,0c0,0,0,0,0.1,0l1-0.6c0.1,0.2,0.3,0.4,0.5,0.5
		l-0.6,1c0,0,0,0,0,0.1c0,0.1,0.1,0.2,0.2,0.3l0,0c0.1,0,0.1,0.1,0.2,0.1c0,0,0,0,0,0c0.1,0,0.1,0,0.2-0.1l0.6-1
		c0.2,0.1,0.4,0.2,0.7,0.2V15c0,0,0,0.1,0.1,0.1c0.1,0,0.1,0.1,0.2,0.1c0.1,0,0.2,0,0.2-0.1c0.1,0,0.1-0.1,0.1-0.1l0-1.1
		c0.2,0,0.5-0.1,0.7-0.2l0.6,1c0,0,0.1,0.1,0.2,0.1c0.1,0,0.1,0,0.2-0.1l0,0c0.1-0.1,0.2-0.2,0.2-0.3v0c0,0,0,0,0-0.1l-0.6-1
		c0.2-0.1,0.4-0.3,0.5-0.5l1,0.6c0,0,0,0,0.1,0c0.1,0,0.2-0.1,0.3-0.2l0,0c0-0.1,0.1-0.1,0.1-0.2v0c0-0.1,0-0.1-0.1-0.2l-1-0.6
		c0.1-0.2,0.2-0.4,0.2-0.7h1.1c0,0,0.1,0,0.1-0.1c0-0.1,0.1-0.1,0.1-0.2v0C34.6,11.3,34.6,11.2,34.6,11.2z"/>
</g>
</svg>
